<svg width="30" height="34" viewBox="0 0 30 34" fill="none" xmlns="http://www.w3.org/2000/svg">
<rect width="30" height="30" fill="#4361EE"/>
<g filter="url(#filter0_d_346_10)">
<path fill-rule="evenodd" clip-rule="evenodd" d="M14.1681 4.33069C13.338 4.44717 12.6792 4.89127 12.3281 5.57098L12.1412 5.93256L12.1061 9.0679C12.0867 10.7923 12.0674 12.2083 12.0632 12.2146C12.0589 12.2208 10.6726 12.2331 8.9824 12.2418L5.90934 12.2577L5.52908 12.4294C4.87594 12.7245 4.49116 13.1984 4.34114 13.8928C4.29483 14.1072 4.27705 14.5766 4.28951 15.2554L4.30849 16.291L4.50317 16.687C4.72031 17.1287 5.05712 17.4654 5.4455 17.6292C6.06342 17.8898 6.19064 17.8989 9.23562 17.8989H12.109L12.1251 20.992L12.1412 24.0851L12.2933 24.3944C12.592 25.0017 13.1531 25.4312 13.885 25.6125C14.4223 25.7457 15.6302 25.7487 16.0837 25.6179C17.0376 25.3431 17.5774 24.8405 17.7971 24.0227C17.8735 23.7386 17.8871 23.2489 17.8871 20.796V17.9043L20.8744 17.8868C23.7736 17.8698 23.8727 17.8657 24.234 17.7496C24.6332 17.6213 25.0995 17.2907 25.3124 16.9848C25.6113 16.5556 25.6769 16.285 25.7063 15.3615C25.7404 14.2868 25.6657 13.686 25.4511 13.3102C25.2433 12.9461 24.7647 12.5393 24.3618 12.3842C24.0342 12.2581 24.024 12.2576 20.9632 12.2423L17.8932 12.2268L17.8755 9.13554L17.8579 6.04424L17.7228 5.71722C17.5352 5.26304 16.9068 4.66595 16.442 4.50014C15.893 4.30431 14.889 4.22948 14.1681 4.33069Z" fill="#9FC4F0"/>
</g>
<defs>
<filter id="filter0_d_346_10" x="0.285645" y="4.28564" width="29.4287" height="29.4285" filterUnits="userSpaceOnUse" color-interpolation-filters="sRGB">
<feFlood flood-opacity="0" result="BackgroundImageFix"/>
<feColorMatrix in="SourceAlpha" type="matrix" values="0 0 0 0 0 0 0 0 0 0 0 0 0 0 0 0 0 0 127 0" result="hardAlpha"/>
<feOffset dy="4"/>
<feGaussianBlur stdDeviation="2"/>
<feComposite in2="hardAlpha" operator="out"/>
<feColorMatrix type="matrix" values="0 0 0 0 0 0 0 0 0 0 0 0 0 0 0 0 0 0 0.25 0"/>
<feBlend mode="normal" in2="BackgroundImageFix" result="effect1_dropShadow_346_10"/>
<feBlend mode="normal" in="SourceGraphic" in2="effect1_dropShadow_346_10" result="shape"/>
</filter>
</defs>
</svg>
